<?xml version="1.0" encoding="UTF-8"?>
<svg width="1200" height="630" viewBox="0 0 1200 630" fill="none" xmlns="http://www.w3.org/2000/svg">
  <defs>
    <linearGradient id="bg" x1="0" y1="0" x2="1200" y2="630" gradientUnits="userSpaceOnUse">
      <stop stop-color="#0B1220"/>
      <stop offset="1" stop-color="#111827"/>
    </linearGradient>
    <radialGradient id="glow" cx="0" cy="0" r="1" gradientUnits="userSpaceOnUse" gradientTransform="translate(920 210) rotate(140) scale(540 420)">
      <stop stop-color="#14B8A6" stop-opacity="0.28"/>
      <stop offset="1" stop-color="#14B8A6" stop-opacity="0"/>
    </radialGradient>
  </defs>

  <rect x="0" y="0" width="1200" height="630" rx="48" fill="url(#bg)"/>
  <rect x="0" y="0" width="1200" height="630" rx="48" fill="url(#glow)"/>

  <!-- Icon -->
  <g transform="translate(825,145) scale(0.62)">
    <rect x="0" y="0" width="512" height="512" rx="112" fill="#0B1220" opacity="0.0"/>
    
  <!-- Sync arrows ring -->
  <path d="M148 194 A140 140 0 0 1 365 184" stroke="#14B8A6" stroke-width="26" stroke-linecap="round"/>
  <path d="M372 165 L393 199 L356 206" fill="none" stroke="#14B8A6" stroke-width="26" stroke-linecap="round" stroke-linejoin="round"/>

  <path d="M364 318 A140 140 0 0 1 148 328" stroke="#14B8A6" stroke-width="26" stroke-linecap="round"/>
  <path d="M140 347 L119 313 L156 306" fill="none" stroke="#14B8A6" stroke-width="26" stroke-linecap="round" stroke-linejoin="round"/>

  <!-- Cup -->
  <rect x="168" y="224" width="176" height="142" rx="32" fill="#111827" stroke="#F59E0B" stroke-width="18"/>
  <path d="M344 250 C388 250 388 340 344 340" stroke="#F59E0B" stroke-width="18" stroke-linecap="round" fill="none"/>
  <path d="M344 272 C364 272 364 318 344 318" stroke="#0B1220" stroke-width="10" stroke-linecap="round" fill="none"/>

  <!-- Coffee surface -->
  <path d="M190 262
           C218 246 246 270 274 254
           C302 238 330 262 322 282
           C316 296 288 292 260 300
           C232 308 204 306 190 294
           C176 282 176 270 190 262 Z"
        fill="#92400E" opacity="0.9"/>

  <!-- Steam -->
  <path d="M224 188
           C210 168 228 152 216 134
           C204 116 220 96 244 96"
        stroke="#E5E7EB" stroke-width="14" stroke-linecap="round" fill="none" opacity="0.9"/>
  <path d="M276 188
           C262 168 280 152 268 134
           C256 116 272 96 296 96"
        stroke="#E5E7EB" stroke-width="14" stroke-linecap="round" fill="none" opacity="0.9"/>
  <path d="M250 198
           C238 176 258 160 246 142
           C234 124 250 104 270 104"
        stroke="#E5E7EB" stroke-width="12" stroke-linecap="round" fill="none" opacity="0.8"/>

  </g>

  <text x="96" y="250" fill="#FFFFFF"
        font-family="Inter, ui-sans-serif, system-ui, -apple-system, Segoe UI, Roboto, Helvetica, Arial"
        font-size="72" font-weight="800" letter-spacing="-0.02em">
    Sync Your Bar
  </text>
  <text x="96" y="322" fill="#C7D2FE"
        font-family="Inter, ui-sans-serif, system-ui, -apple-system, Segoe UI, Roboto, Helvetica, Arial"
        font-size="34" font-weight="500">
    Instant order management. Offline-first.
  </text>

  <rect x="96" y="376" width="330" height="56" rx="28" fill="#0B1220" stroke="#14B8A6" stroke-opacity="0.65" stroke-width="2"/>
  <text x="126" y="414" fill="#14B8A6"
        font-family="Inter, ui-sans-serif, system-ui, -apple-system, Segoe UI, Roboto, Helvetica, Arial"
        font-size="26" font-weight="700">
    kafić.hr
  </text>

  <text x="96" y="540" fill="#94A3B8"
        font-family="Inter, ui-sans-serif, system-ui, -apple-system, Segoe UI, Roboto, Helvetica, Arial"
        font-size="22" font-weight="500">
    P2P sessions • Waiter &amp; Bartender roles • Zero backend
  </text>
</svg>
